<svg width="512" height="512" viewBox="0 0 512 512" fill="none" xmlns="http://www.w3.org/2000/svg">
<g filter="url(#filter0_d_1_2075)">
<path d="M189.782 266.483H215.317C217.728 266.483 219.827 267.956 220.992 270.509C222.174 273.103 222.047 276.149 220.481 278.421L220.479 278.423C204.352 301.841 194.895 330.256 194.893 360.823C194.841 391.084 204.268 420.601 221.851 445.23C223.472 447.5 223.641 450.602 222.456 453.266C221.29 455.887 219.16 457.4 216.704 457.4H105.344C91.2241 457.4 77.6822 451.791 67.6978 441.806C57.7133 431.822 52.104 418.28 52.104 404.16C52.1041 367.646 66.6097 332.627 92.4292 306.807C118.249 280.988 153.268 266.483 189.782 266.483ZM215.061 47.6667C239.165 47.6667 262.281 57.2421 279.325 74.2858C296.369 91.3296 305.944 114.446 305.944 138.549C305.944 162.653 296.368 185.769 279.325 202.813C262.281 219.857 239.165 229.432 215.061 229.432C190.958 229.432 167.841 219.857 150.797 202.813C133.754 185.769 124.178 162.653 124.178 138.549C124.178 114.446 133.754 91.3296 150.797 74.2858C167.841 57.2421 190.958 47.6668 215.061 47.6667Z" stroke="black" stroke-width="10"/>
<path d="M340.374 257.373C367.818 257.373 394.139 268.276 413.545 287.682C432.951 307.088 443.853 333.409 443.853 360.854C443.853 388.298 432.951 414.619 413.545 434.025C394.139 453.431 367.818 464.333 340.374 464.333C312.929 464.333 286.608 453.431 267.202 434.025C247.796 414.619 236.893 388.298 236.893 360.854C236.893 333.409 247.796 307.088 267.202 287.682C286.608 268.276 312.929 257.373 340.374 257.373ZM398.67 311.779C396.056 310.892 393.293 310.53 390.539 310.712C387.785 310.894 385.094 311.617 382.62 312.84C380.146 314.063 377.938 315.76 376.121 317.836L332.665 367.458V367.459C332.152 368.045 331.523 368.519 330.819 368.851C330.115 369.183 329.349 369.367 328.571 369.391C327.793 369.414 327.018 369.277 326.295 368.988C325.662 368.734 325.081 368.369 324.579 367.91L324.368 367.708L305.682 348.766L305.679 348.764L305.312 348.4C303.452 346.607 301.274 345.172 298.89 344.167C296.348 343.096 293.619 342.535 290.859 342.518C288.1 342.501 285.364 343.028 282.808 344.069C280.253 345.109 277.927 346.642 275.964 348.581C274.001 350.521 272.439 352.828 271.367 355.37C270.295 357.913 269.735 360.642 269.719 363.402C269.702 366.161 270.228 368.898 271.268 371.453C272.309 374.009 273.843 376.335 275.782 378.298V378.299L306.565 409.444V409.445C309.621 412.539 313.282 414.97 317.319 416.587C321.356 418.205 325.683 418.973 330.03 418.845C334.377 418.717 338.652 417.694 342.587 415.841C346.521 413.988 350.032 411.346 352.9 408.076L352.902 408.074L407.726 345.504L407.727 345.505C409.547 343.43 410.939 341.016 411.826 338.403C412.712 335.789 413.075 333.027 412.893 330.273C412.711 327.519 411.988 324.828 410.765 322.354C409.543 319.88 407.843 317.67 405.766 315.853C403.67 314.016 401.253 312.655 398.67 311.779Z" stroke="black" stroke-width="10"/>
</g>
<defs>
<filter id="filter0_d_1_2075" x="43.104" y="42.6667" width="409.749" height="434.667" filterUnits="userSpaceOnUse" color-interpolation-filters="sRGB">
<feFlood flood-opacity="0" result="BackgroundImageFix"/>
<feColorMatrix in="SourceAlpha" type="matrix" values="0 0 0 0 0 0 0 0 0 0 0 0 0 0 0 0 0 0 127 0" result="hardAlpha"/>
<feOffset dy="4"/>
<feGaussianBlur stdDeviation="2"/>
<feComposite in2="hardAlpha" operator="out"/>
<feColorMatrix type="matrix" values="0 0 0 0 0 0 0 0 0 0 0 0 0 0 0 0 0 0 0.25 0"/>
<feBlend mode="normal" in2="BackgroundImageFix" result="effect1_dropShadow_1_2075"/>
<feBlend mode="normal" in="SourceGraphic" in2="effect1_dropShadow_1_2075" result="shape"/>
</filter>
</defs>
</svg>
