<svg width="512" height="512" viewBox="0 0 512 512" fill="none" xmlns="http://www.w3.org/2000/svg">
<path d="M215.061 42.6667C189.632 42.6667 165.244 52.7686 147.262 70.7501C129.281 88.7316 119.179 113.12 119.179 138.549C119.179 163.979 129.281 188.367 147.262 206.349C165.244 224.33 189.632 234.432 215.061 234.432C240.491 234.432 264.879 224.33 282.861 206.349C300.842 188.367 310.944 163.979 310.944 138.549C310.944 113.12 300.842 88.7316 282.861 70.7501C264.879 52.7686 240.491 42.6667 215.061 42.6667ZM224.597 281.259C229.995 273.429 224.811 261.483 215.317 261.483H189.781C151.941 261.483 115.65 276.515 88.8932 303.272C62.136 330.029 47.104 366.32 47.104 404.16C47.104 419.606 53.24 434.42 64.1621 445.342C75.0842 456.264 89.8978 462.4 105.344 462.4H216.704C226.347 462.4 231.509 450.155 225.92 442.325C208.944 418.547 199.843 390.048 199.893 360.832C199.893 331.307 209.024 303.872 224.597 281.259Z" fill="black"/>
<path fill-rule="evenodd" clip-rule="evenodd" d="M448.853 360.853C448.853 389.624 437.424 417.216 417.08 437.56C396.736 457.904 369.144 469.333 340.373 469.333C311.603 469.333 284.01 457.904 263.666 437.56C243.322 417.216 231.893 389.624 231.893 360.853C231.893 332.083 243.322 304.49 263.666 284.146C284.01 263.802 311.603 252.373 340.373 252.373C369.144 252.373 396.736 263.802 417.08 284.146C437.424 304.49 448.853 332.083 448.853 360.853ZM402.475 319.616C404.057 321.001 405.351 322.684 406.283 324.569C407.215 326.454 407.766 328.504 407.904 330.602C408.043 332.701 407.767 334.806 407.091 336.797C406.416 338.788 405.355 340.627 403.968 342.208L349.141 404.779C346.726 407.532 343.77 409.758 340.456 411.318C337.143 412.878 333.543 413.739 329.883 413.847C326.222 413.955 322.578 413.308 319.179 411.946C315.779 410.584 312.696 408.536 310.123 405.931L279.339 374.784C277.861 373.288 276.692 371.516 275.899 369.568C275.107 367.62 274.705 365.535 274.718 363.433C274.731 361.33 275.158 359.25 275.974 357.312C276.791 355.375 277.981 353.617 279.477 352.139C280.973 350.661 282.746 349.492 284.693 348.699C286.641 347.907 288.726 347.505 290.829 347.518C292.932 347.531 295.011 347.958 296.949 348.774C298.887 349.591 300.645 350.781 302.123 352.277L320.811 371.221C321.841 372.264 323.075 373.084 324.436 373.629C325.797 374.174 327.256 374.432 328.721 374.388C330.186 374.344 331.627 373.999 332.953 373.373C334.278 372.747 335.461 371.855 336.427 370.752L379.883 321.131C381.267 319.548 382.95 318.254 384.835 317.322C386.721 316.391 388.771 315.84 390.869 315.701C392.967 315.562 395.072 315.839 397.064 316.514C399.055 317.189 400.894 318.229 402.475 319.616Z" fill="black"/>
<path d="M215.061 42.6667C189.632 42.6667 165.244 52.7686 147.262 70.7501C129.281 88.7316 119.179 113.12 119.179 138.549C119.179 163.979 129.281 188.367 147.262 206.349C165.244 224.33 189.632 234.432 215.061 234.432C240.491 234.432 264.879 224.33 282.861 206.349C300.842 188.367 310.944 163.979 310.944 138.549C310.944 113.12 300.842 88.7316 282.861 70.7501C264.879 52.7686 240.491 42.6667 215.061 42.6667ZM224.597 281.259C229.995 273.429 224.811 261.483 215.317 261.483H189.781C151.941 261.483 115.65 276.515 88.8932 303.272C62.136 330.029 47.104 366.32 47.104 404.16C47.104 419.606 53.24 434.42 64.1621 445.342C75.0842 456.264 89.8978 462.4 105.344 462.4H216.704C226.347 462.4 231.509 450.155 225.92 442.325C208.944 418.547 199.843 390.048 199.893 360.832C199.893 331.307 209.024 303.872 224.597 281.259Z" fill="black"/>
<path fill-rule="evenodd" clip-rule="evenodd" d="M448.853 360.853C448.853 389.624 437.424 417.216 417.08 437.56C396.736 457.904 369.144 469.333 340.373 469.333C311.603 469.333 284.01 457.904 263.666 437.56C243.322 417.216 231.893 389.624 231.893 360.853C231.893 332.083 243.322 304.49 263.666 284.146C284.01 263.802 311.603 252.373 340.373 252.373C369.144 252.373 396.736 263.802 417.08 284.146C437.424 304.49 448.853 332.083 448.853 360.853ZM402.475 319.616C404.057 321.001 405.351 322.684 406.283 324.569C407.215 326.454 407.766 328.504 407.904 330.602C408.043 332.701 407.767 334.806 407.091 336.797C406.416 338.788 405.355 340.627 403.968 342.208L349.141 404.779C346.726 407.532 343.77 409.758 340.456 411.318C337.143 412.878 333.543 413.739 329.883 413.847C326.222 413.955 322.578 413.308 319.179 411.946C315.779 410.584 312.696 408.536 310.123 405.931L279.339 374.784C277.861 373.288 276.692 371.516 275.899 369.568C275.107 367.62 274.705 365.535 274.718 363.433C274.731 361.33 275.158 359.25 275.974 357.312C276.791 355.375 277.981 353.617 279.477 352.139C280.973 350.661 282.746 349.492 284.693 348.699C286.641 347.907 288.726 347.505 290.829 347.518C292.932 347.531 295.011 347.958 296.949 348.774C298.887 349.591 300.645 350.781 302.123 352.277L320.811 371.221C321.841 372.264 323.075 373.084 324.436 373.629C325.797 374.174 327.256 374.432 328.721 374.388C330.186 374.344 331.627 373.999 332.953 373.373C334.278 372.747 335.461 371.855 336.427 370.752L379.883 321.131C381.267 319.548 382.95 318.254 384.835 317.322C386.721 316.391 388.771 315.84 390.869 315.701C392.967 315.562 395.072 315.839 397.064 316.514C399.055 317.189 400.894 318.229 402.475 319.616Z" fill="black"/>
<path d="M215.061 42.6667C189.632 42.6667 165.244 52.7686 147.262 70.7501C129.281 88.7316 119.179 113.12 119.179 138.549C119.179 163.979 129.281 188.367 147.262 206.349C165.244 224.33 189.632 234.432 215.061 234.432C240.491 234.432 264.879 224.33 282.861 206.349C300.842 188.367 310.944 163.979 310.944 138.549C310.944 113.12 300.842 88.7316 282.861 70.7501C264.879 52.7686 240.491 42.6667 215.061 42.6667ZM224.597 281.259C229.995 273.429 224.811 261.483 215.317 261.483H189.781C151.941 261.483 115.65 276.515 88.8932 303.272C62.136 330.029 47.104 366.32 47.104 404.16C47.104 419.606 53.24 434.42 64.1621 445.342C75.0842 456.264 89.8978 462.4 105.344 462.4H216.704C226.347 462.4 231.509 450.155 225.92 442.325C208.944 418.547 199.843 390.048 199.893 360.832C199.893 331.307 209.024 303.872 224.597 281.259Z" fill="black"/>
<path fill-rule="evenodd" clip-rule="evenodd" d="M448.853 360.853C448.853 389.624 437.424 417.216 417.08 437.56C396.736 457.904 369.144 469.333 340.373 469.333C311.603 469.333 284.01 457.904 263.666 437.56C243.322 417.216 231.893 389.624 231.893 360.853C231.893 332.083 243.322 304.49 263.666 284.146C284.01 263.802 311.603 252.373 340.373 252.373C369.144 252.373 396.736 263.802 417.08 284.146C437.424 304.49 448.853 332.083 448.853 360.853ZM402.475 319.616C404.057 321.001 405.351 322.684 406.283 324.569C407.215 326.454 407.766 328.504 407.904 330.602C408.043 332.701 407.767 334.806 407.091 336.797C406.416 338.788 405.355 340.627 403.968 342.208L349.141 404.779C346.726 407.532 343.77 409.758 340.456 411.318C337.143 412.878 333.543 413.739 329.883 413.847C326.222 413.955 322.578 413.308 319.179 411.946C315.779 410.584 312.696 408.536 310.123 405.931L279.339 374.784C277.861 373.288 276.692 371.516 275.899 369.568C275.107 367.62 274.705 365.535 274.718 363.433C274.731 361.33 275.158 359.25 275.974 357.312C276.791 355.375 277.981 353.617 279.477 352.139C280.973 350.661 282.746 349.492 284.693 348.699C286.641 347.907 288.726 347.505 290.829 347.518C292.932 347.531 295.011 347.958 296.949 348.774C298.887 349.591 300.645 350.781 302.123 352.277L320.811 371.221C321.841 372.264 323.075 373.084 324.436 373.629C325.797 374.174 327.256 374.432 328.721 374.388C330.186 374.344 331.627 373.999 332.953 373.373C334.278 372.747 335.461 371.855 336.427 370.752L379.883 321.131C381.267 319.548 382.95 318.254 384.835 317.322C386.721 316.391 388.771 315.84 390.869 315.701C392.967 315.562 395.072 315.839 397.064 316.514C399.055 317.189 400.894 318.229 402.475 319.616Z" fill="black"/>
</svg>
