<svg width="512" height="512" viewBox="0 0 512 512" fill="none" xmlns="http://www.w3.org/2000/svg">
<path d="M128 240C150.152 240 171.806 233.431 190.224 221.125C208.642 208.818 222.997 191.326 231.475 170.861C239.952 150.395 242.169 127.876 237.848 106.15C233.526 84.424 222.859 64.4675 207.196 48.804C191.532 33.1406 171.576 22.4736 149.85 18.152C128.124 13.8305 105.605 16.0485 85.1395 24.5255C64.6741 33.0025 47.1821 47.3578 34.8754 65.7761C22.5687 84.1944 16 105.848 16 128C16 157.704 27.8 186.192 48.804 207.196C69.8081 228.2 98.2958 240 128 240ZM112 80H144V125.76L187.84 155.04L170.08 181.6L119.2 147.52C116.999 146.071 115.19 144.1 113.934 141.783C112.678 139.466 112.014 136.875 112 134.24V80ZM320 176H352V416H448V176H480C482.727 175.992 485.407 175.286 487.786 173.951C490.164 172.616 492.161 170.694 493.588 168.37C495.015 166.045 495.823 163.395 495.938 160.67C496.052 157.945 495.467 155.236 494.24 152.8L437.44 39.2C433.99 32.2166 428.655 26.3373 422.039 22.2265C415.423 18.1156 407.789 15.9371 400 15.9371C392.211 15.9371 384.577 18.1156 377.961 22.2265C371.345 26.3373 366.01 32.2166 362.56 39.2L305.76 152.8C304.533 155.236 303.948 157.945 304.062 160.67C304.177 163.395 304.985 166.045 306.412 168.37C307.839 170.694 309.836 172.616 312.214 173.951C314.593 175.286 317.273 175.992 320 176ZM208 256V416H304V256C304 251.757 302.314 247.687 299.314 244.686C296.313 241.686 292.243 240 288 240H224C219.757 240 215.687 241.686 212.686 244.686C209.686 247.687 208 251.757 208 256ZM16 448V464C16 472.487 19.3714 480.626 25.3726 486.627C31.3737 492.629 39.5131 496 48 496H464C472.487 496 480.626 492.629 486.627 486.627C492.629 480.626 496 472.487 496 464V448H16ZM80 304C75.7565 304 71.6869 305.686 68.6863 308.686C65.6857 311.687 64 315.757 64 320V416H160V320C160 315.757 158.314 311.687 155.314 308.686C152.313 305.686 148.243 304 144 304H80Z" fill="black"/>
</svg>
