<svg width="512" height="512" viewBox="0 0 512 512" fill="none" xmlns="http://www.w3.org/2000/svg">
<path d="M488.5 455.5V464C488.5 470.497 485.919 476.729 481.324 481.324C476.73 485.918 470.498 488.5 464 488.5H48C41.5022 488.5 35.2704 485.918 30.6758 481.324C26.0813 476.729 23.5 470.497 23.5 464V455.5H488.5ZM400 23.4371C406.39 23.4371 412.653 25.2248 418.081 28.5973C423.509 31.9698 427.885 36.7929 430.716 42.5221L430.724 42.5377L430.731 42.5543L487.532 156.154L487.542 156.175C488.194 157.469 488.505 158.908 488.444 160.356C488.384 161.804 487.954 163.212 487.196 164.447C486.438 165.682 485.377 166.702 484.113 167.412C482.85 168.121 481.426 168.495 479.978 168.5H440.5V408.5H359.5V168.5H320.022C318.574 168.495 317.15 168.121 315.887 167.412C314.623 166.702 313.562 165.682 312.804 164.447C312.046 163.212 311.616 161.804 311.556 160.356C311.495 158.908 311.806 157.469 312.458 156.175L312.468 156.154L369.269 42.5543L369.276 42.5377L369.284 42.5221C372.115 36.7929 376.491 31.9698 381.919 28.5973C387.347 25.2248 393.61 23.4371 400 23.4371ZM224 247.5H288C290.254 247.5 292.417 248.396 294.011 249.99C295.605 251.584 296.5 253.746 296.5 256V408.5H215.5V256C215.5 253.746 216.395 251.584 217.989 249.99C219.583 248.396 221.746 247.5 224 247.5ZM80 311.5H144C146.254 311.5 148.417 312.396 150.011 313.99C151.605 315.584 152.5 317.746 152.5 320V408.5H71.5V320C71.5001 317.746 72.3955 315.584 73.9893 313.99C75.5833 312.396 77.7456 311.5 80 311.5ZM88.0098 31.4547C107.105 23.5454 128.116 21.4763 148.387 25.5084C168.658 29.5406 187.278 39.4926 201.893 54.1071C216.507 68.7216 226.46 87.3419 230.492 107.613C234.524 127.884 232.454 148.896 224.545 167.991C216.636 187.085 203.241 203.406 186.057 214.888C168.872 226.371 148.668 232.5 128 232.5C100.285 232.5 73.705 221.49 54.1074 201.892C34.51 182.295 23.5 155.715 23.5 128C23.5001 107.332 29.6288 87.1278 41.1113 69.943C52.5939 52.7581 68.9149 39.3641 88.0098 31.4547ZM104.5 134.279C104.52 138.15 105.496 141.955 107.341 145.358C109.176 148.743 111.816 151.625 115.026 153.751V153.752L165.906 187.832L172.143 192.008L176.314 185.769L194.074 159.209L198.246 152.971L192.006 148.803L151.5 121.75V72.4996H104.5V134.279Z" stroke="black" stroke-width="15"/>
</svg>
