<svg width="512" height="512" viewBox="0 0 512 512" fill="none" xmlns="http://www.w3.org/2000/svg">
<g clip-path="url(#clip0_4_10)">
<path d="M480 110.88V176H32V110.88C32.1645 98.3032 37.3101 86.305 46.3084 77.5168C55.3066 68.7285 67.4229 63.8675 80 64H112V96C112 108.73 117.057 120.939 126.059 129.941C135.061 138.943 147.27 144 160 144C172.73 144 184.939 138.943 193.941 129.941C202.943 120.939 208 108.73 208 96V64H304V96C304 108.73 309.057 120.939 318.059 129.941C327.061 138.943 339.27 144 352 144C364.73 144 376.939 138.943 385.941 129.941C394.943 120.939 400 108.73 400 96V64H432C444.577 63.8675 456.693 68.7285 465.692 77.5168C474.69 86.305 479.835 98.3032 480 110.88ZM32 208V465.12C32.1645 477.697 37.3101 489.695 46.3084 498.483C55.3066 507.271 67.4229 512.132 80 512H432C444.577 512.132 456.693 507.271 465.692 498.483C474.69 489.695 479.835 477.697 480 465.12V208H32ZM176 432C175.987 436.24 174.298 440.302 171.3 443.3C168.302 446.297 164.24 447.987 160 448H128C123.76 447.987 119.698 446.297 116.7 443.3C113.702 440.302 112.013 436.24 112 432V400C112.013 395.76 113.702 391.698 116.7 388.7C119.698 385.702 123.76 384.013 128 384H160C164.24 384.013 168.302 385.702 171.3 388.7C174.298 391.698 175.987 395.76 176 400V432ZM176 320C175.987 324.24 174.298 328.302 171.3 331.3C168.302 334.297 164.24 335.987 160 336H128C123.76 335.987 119.698 334.297 116.7 331.3C113.702 328.302 112.013 324.24 112 320V288C112.013 283.76 113.702 279.698 116.7 276.7C119.698 273.702 123.76 272.013 128 272H160C164.24 272.013 168.302 273.702 171.3 276.7C174.298 279.698 175.987 283.76 176 288V320ZM288 432C287.987 436.24 286.298 440.302 283.3 443.3C280.302 446.297 276.24 447.987 272 448H240C235.76 447.987 231.698 446.297 228.7 443.3C225.702 440.302 224.013 436.24 224 432V400C224.013 395.76 225.702 391.698 228.7 388.7C231.698 385.702 235.76 384.013 240 384H272C276.24 384.013 280.302 385.702 283.3 388.7C286.298 391.698 287.987 395.76 288 400V432ZM288 320C287.987 324.24 286.298 328.302 283.3 331.3C280.302 334.297 276.24 335.987 272 336H240C235.76 335.987 231.698 334.297 228.7 331.3C225.702 328.302 224.013 324.24 224 320V288C224.013 283.76 225.702 279.698 228.7 276.7C231.698 273.702 235.76 272.013 240 272H272C276.24 272.013 280.302 273.702 283.3 276.7C286.298 279.698 287.987 283.76 288 288V320ZM400 320C399.987 324.24 398.298 328.302 395.3 331.3C392.302 334.297 388.24 335.987 384 336H352C347.76 335.987 343.698 334.297 340.7 331.3C337.702 328.302 336.013 324.24 336 320V288C336.013 283.76 337.702 279.698 340.7 276.7C343.698 273.702 347.76 272.013 352 272H384C388.24 272.013 392.302 273.702 395.3 276.7C398.298 279.698 399.987 283.76 400 288V320Z" fill="black"/>
<path d="M176 64V96C176 100.243 174.314 104.313 171.314 107.314C168.313 110.314 164.243 112 160 112C155.757 112 151.687 110.314 148.686 107.314C145.686 104.313 144 100.243 144 96V64C144 59.7565 145.686 55.6869 148.686 52.6863C151.687 49.6857 155.757 48 160 48C164.243 48 168.313 49.6857 171.314 52.6863C174.314 55.6869 176 59.7565 176 64ZM368 64V96C368 100.243 366.314 104.313 363.314 107.314C360.313 110.314 356.243 112 352 112C347.757 112 343.687 110.314 340.686 107.314C337.686 104.313 336 100.243 336 96V64C336 59.7565 337.686 55.6869 340.686 52.6863C343.687 49.6857 347.757 48 352 48C356.243 48 360.313 49.6857 363.314 52.6863C366.314 55.6869 368 59.7565 368 64Z" fill="black"/>
</g>
<defs>
<clipPath id="clip0_4_10">
<rect width="512" height="512" fill="white"/>
</clipPath>
</defs>
</svg>
