<svg width="512" height="512" viewBox="0 0 512 512" fill="none" xmlns="http://www.w3.org/2000/svg">
<g clip-path="url(#clip0_4_15)">
<path d="M472.5 215.5V465.06C472.352 475.637 468.02 485.726 460.451 493.117C452.874 500.518 442.67 504.612 432.079 504.5H79.9209C69.3295 504.612 59.1264 500.518 51.5488 493.117C43.9803 485.726 39.6484 475.637 39.5 465.06V215.5H472.5ZM432.079 71.4993C442.67 71.3878 452.874 75.4815 460.451 82.8821C468.019 90.2737 472.351 100.362 472.5 110.939V168.5H39.5V110.939C39.6487 100.362 43.9806 90.2737 51.5488 82.8821C59.1263 75.4815 69.3296 71.3878 79.9209 71.4993L79.9609 71.5002H104.5V96.0002C104.5 110.72 110.348 124.836 120.756 135.244C131.164 145.653 145.281 151.5 160 151.5C174.719 151.5 188.836 145.653 199.244 135.244C209.652 124.836 215.5 110.72 215.5 96.0002V71.5002H296.5V96.0002C296.5 110.72 302.348 124.836 312.756 135.244C323.164 145.653 337.281 151.5 352 151.5C366.719 151.5 380.836 145.653 391.244 135.244C401.652 124.836 407.5 110.72 407.5 96.0002V71.5002H432.039L432.079 71.4993ZM183.5 399.978C183.481 393.757 181.002 387.796 176.604 383.397C172.205 378.998 166.243 376.519 160.022 376.5H127.978C121.757 376.519 115.796 378.998 111.397 383.397C106.999 387.796 104.519 393.757 104.5 399.978V432.023C104.519 438.244 106.999 444.204 111.397 448.603C115.796 453.002 121.757 455.482 127.978 455.5H160.022C166.243 455.482 172.205 453.002 176.604 448.603C181.002 444.204 183.481 438.243 183.5 432.023V399.978ZM295.5 399.978C295.481 393.757 293.001 387.796 288.603 383.397C284.204 378.998 278.243 376.519 272.022 376.5H239.978C233.757 376.519 227.795 378.998 223.396 383.397C218.998 387.796 216.519 393.757 216.5 399.978V432.023C216.519 438.243 218.998 444.204 223.396 448.603C227.795 453.002 233.757 455.482 239.978 455.5H272.022C278.243 455.482 284.204 453.002 288.603 448.603C293.001 444.204 295.481 438.244 295.5 432.023V399.978ZM183.5 287.978C183.481 281.757 181.002 275.796 176.604 271.397C172.205 266.998 166.243 264.519 160.022 264.5H127.978C121.757 264.519 115.796 266.998 111.397 271.397C106.999 275.796 104.519 281.757 104.5 287.978V320.023C104.519 326.244 106.999 332.204 111.397 336.603C115.796 341.002 121.757 343.482 127.978 343.5H160.022C166.243 343.482 172.205 341.002 176.604 336.603C181.002 332.204 183.481 326.243 183.5 320.023V287.978ZM295.5 287.978C295.481 281.757 293.001 275.796 288.603 271.397C284.204 266.998 278.243 264.519 272.022 264.5H239.978C233.757 264.519 227.795 266.998 223.396 271.397C218.998 275.796 216.519 281.757 216.5 287.978V320.023C216.519 326.243 218.998 332.204 223.396 336.603C227.795 341.002 233.757 343.482 239.978 343.5H272.022C278.243 343.482 284.204 341.002 288.603 336.603C293.001 332.204 295.481 326.244 295.5 320.023V287.978ZM407.5 287.978C407.481 281.757 405.001 275.796 400.603 271.397C396.204 266.998 390.243 264.519 384.022 264.5H351.978C345.757 264.519 339.796 266.998 335.397 271.397C330.999 275.796 328.519 281.757 328.5 287.978V320.023C328.519 326.244 330.999 332.204 335.397 336.603C339.796 341.002 345.757 343.482 351.978 343.5H384.022C390.243 343.482 396.204 341.002 400.603 336.603C405.001 332.204 407.481 326.244 407.5 320.023V287.978Z" stroke="black" stroke-width="25"/>
<path d="M176 64V96C176 100.243 174.314 104.313 171.314 107.314C168.313 110.314 164.243 112 160 112C155.757 112 151.687 110.314 148.686 107.314C145.686 104.313 144 100.243 144 96V64C144 59.7565 145.686 55.6869 148.686 52.6863C151.687 49.6857 155.757 48 160 48C164.243 48 168.313 49.6857 171.314 52.6863C174.314 55.6869 176 59.7565 176 64ZM368 64V96C368 100.243 366.314 104.313 363.314 107.314C360.313 110.314 356.243 112 352 112C347.757 112 343.687 110.314 340.686 107.314C337.686 104.313 336 100.243 336 96V64C336 59.7565 337.686 55.6869 340.686 52.6863C343.687 49.6857 347.757 48 352 48C356.243 48 360.313 49.6857 363.314 52.6863C366.314 55.6869 368 59.7565 368 64Z" fill="black"/>
</g>
<defs>
<clipPath id="clip0_4_15">
<rect width="512" height="512" fill="white"/>
</clipPath>
</defs>
</svg>
